<svg width="32" height="32" viewBox="0 0 32 32" fill="none" xmlns="http://www.w3.org/2000/svg">
<path d="M5.9826 5.98262L7.37391 28.2435C7.44 29.5297 8.37565 30.4696 9.6 30.4696H22.4C23.6292 30.4696 24.5475 29.5297 24.6261 28.2435L26.0174 5.98262" stroke="black" stroke-width="2" stroke-linecap="round" stroke-linejoin="round"/>
<path d="M3.75652 5.98262H28.2435Z" fill="black"/>
<path d="M3.75652 5.98262H28.2435" stroke="black" stroke-width="2" stroke-miterlimit="10" stroke-linecap="round"/>
<path d="M21.0087 10.4348L20.4522 26.0174M11.5478 5.98261V3.20001C11.5472 2.98058 11.5899 2.76318 11.6736 2.56033C11.7573 2.35748 11.8802 2.17317 12.0354 2.01801C12.1906 1.86285 12.3749 1.7399 12.5777 1.65622C12.7806 1.57254 12.998 1.5298 13.2174 1.53044H18.7826C19.002 1.5298 19.2194 1.57254 19.4223 1.65622C19.6251 1.7399 19.8094 1.86285 19.9646 2.01801C20.1198 2.17317 20.2427 2.35748 20.3264 2.56033C20.4101 2.76318 20.4528 2.98058 20.4522 3.20001V5.98261H11.5478ZM16 10.4348V26.0174V10.4348ZM10.9913 10.4348L11.5478 26.0174L10.9913 10.4348Z" stroke="black" stroke-width="2" stroke-linecap="round" stroke-linejoin="round"/>
</svg>
