<svg width="32" height="32" viewBox="0 0 32 32" fill="none" xmlns="http://www.w3.org/2000/svg">
<path d="M25.3023 13.8419V27.5349C25.3023 27.9258 25.2253 28.3129 25.0757 28.674C24.9261 29.0352 24.7069 29.3633 24.4305 29.6398C24.154 29.9162 23.8259 30.1354 23.4647 30.285C23.1036 30.4346 22.7165 30.5116 22.3256 30.5116H4.46512C3.67564 30.5116 2.91849 30.198 2.36024 29.6398C1.80199 29.0815 1.48837 28.3244 1.48837 27.5349V9.67442C1.48837 8.88494 1.80199 8.12779 2.36024 7.56954C2.91849 7.01129 3.67564 6.69767 4.46512 6.69767H16.9287" stroke="black" stroke-width="2" stroke-linecap="round" stroke-linejoin="round"/>
<path d="M30.9537 1.13488C30.8449 1.0154 30.7131 0.9192 30.5661 0.852104C30.4191 0.785008 30.2601 0.748406 30.0986 0.744511C29.9371 0.740616 29.7764 0.769507 29.6264 0.829441C29.4764 0.889374 29.3401 0.979104 29.2257 1.09321L28.3051 2.0093C28.1936 2.12094 28.1309 2.27231 28.1309 2.43014C28.1309 2.58797 28.1936 2.73934 28.3051 2.85098L29.149 3.69339C29.2043 3.74897 29.2701 3.79307 29.3425 3.82317C29.4149 3.85326 29.4926 3.86875 29.571 3.86875C29.6494 3.86875 29.727 3.85326 29.7994 3.82317C29.8719 3.79307 29.9376 3.74897 29.9929 3.69339L30.8904 2.80037C31.3444 2.34716 31.3868 1.60893 30.9537 1.13488ZM26.4439 3.86977L13.0099 17.28C12.9284 17.3611 12.8692 17.4618 12.838 17.5725L12.2166 19.4233C12.2017 19.4735 12.2006 19.5268 12.2135 19.5775C12.2264 19.6283 12.2527 19.6747 12.2898 19.7117C12.3268 19.7487 12.3732 19.7751 12.4239 19.788C12.4747 19.8009 12.528 19.7998 12.5782 19.7849L14.4275 19.1635C14.5382 19.1323 14.6389 19.0731 14.72 18.9916L28.1302 5.55609C28.2543 5.4307 28.3239 5.26142 28.3239 5.08502C28.3239 4.90862 28.2543 4.73935 28.1302 4.61395L27.3898 3.86977C27.2642 3.74457 27.0941 3.67426 26.9168 3.67426C26.7395 3.67426 26.5695 3.74457 26.4439 3.86977Z" fill="black"/>
</svg>
